<svg width="24" height="23" viewBox="0 0 24 23" fill="none" xmlns="http://www.w3.org/2000/svg">
<path d="M23.3234 14.0123L19.8323 19.9954C18.9418 21.5211 17.2925 22.4684 15.5265 22.4684H8.47549C6.70949 22.4684 5.05917 21.5201 4.16869 19.9954L0.67758 14.0123C-0.22586 12.4627 -0.22586 10.5372 0.67758 8.98758L4.16869 3.00453C5.05917 1.47886 6.70849 0.531538 8.47449 0.531538H15.5255C17.2915 0.531538 18.9418 1.47985 19.8323 3.00453L23.3224 8.98758C24.2259 10.5372 24.2269 12.4627 23.3234 14.0123ZM21.5993 9.99273L18.1102 4.00968C17.5757 3.09428 16.5855 2.52589 15.5255 2.52589H8.47449C7.41549 2.52589 6.4243 3.09428 5.89081 4.00968L2.4007 9.99273C1.85823 10.9231 1.85823 12.0778 2.4007 13.0072L5.88981 18.9902C6.4243 19.9056 7.41449 20.474 8.47449 20.474H15.5255C16.5845 20.474 17.5757 19.9056 18.1092 18.9902L21.5993 13.0072C22.1418 12.0768 22.1418 10.9221 21.5993 9.99273ZM15.711 13.787L13.4245 11.5005L15.711 9.21394C16.1009 8.82404 16.1009 8.19383 15.711 7.80393C15.5165 7.60948 15.2613 7.51176 15.006 7.51176C14.7507 7.51176 14.4954 7.60948 14.301 7.80393L12.0145 10.0905L9.72794 7.80393C9.53349 7.60948 9.27821 7.51176 9.02293 7.51176C8.76766 7.51176 8.51238 7.60948 8.31793 7.80393C7.92804 8.19383 7.92804 8.82404 8.31793 9.21394L10.6045 11.5005L8.31793 13.787C7.92804 14.1769 7.92804 14.8071 8.31793 15.197C8.70783 15.5869 9.33804 15.5869 9.72794 15.197L12.0145 12.9105L14.301 15.197C14.6909 15.5869 15.3211 15.5869 15.711 15.197C16.1009 14.8071 16.1009 14.1769 15.711 13.787Z" fill="#55567A"/>
</svg>
