<svg width="63" height="63" viewBox="0 0 63 63" fill="none" xmlns="http://www.w3.org/2000/svg">
<g filter="url(#filter0_d_2542_45020)">
<path d="M28.6243 21.069C29.2686 19.3278 31.7314 19.3278 32.3757 21.069L34.0972 25.7212C34.2997 26.2686 34.7314 26.7003 35.2788 26.9028L39.931 28.6243C41.6722 29.2686 41.6722 31.7314 39.931 32.3757L35.2788 34.0972C34.7314 34.2997 34.2997 34.7314 34.0972 35.2788L32.3757 39.931C31.7314 41.6722 29.2686 41.6722 28.6243 39.931L26.9028 35.2788C26.7003 34.7314 26.2686 34.2997 25.7212 34.0972L21.069 32.3757C19.3278 31.7314 19.3278 29.2686 21.069 28.6243L25.7212 26.9028C26.2686 26.7003 26.7003 26.2686 26.9028 25.7212L28.6243 21.069Z" fill="url(#paint0_linear_2542_45020)"/>
</g>
<defs>
<filter id="filter0_d_2542_45020" x="0.761719" y="0.763062" width="61.4766" height="61.4739" filterUnits="userSpaceOnUse" color-interpolation-filters="sRGB">
<feFlood flood-opacity="0" result="BackgroundImageFix"/>
<feColorMatrix in="SourceAlpha" type="matrix" values="0 0 0 0 0 0 0 0 0 0 0 0 0 0 0 0 0 0 127 0" result="hardAlpha"/>
<feOffset dx="1" dy="1"/>
<feGaussianBlur stdDeviation="10"/>
<feComposite in2="hardAlpha" operator="out"/>
<feColorMatrix type="matrix" values="0 0 0 0 0.0352941 0 0 0 0 0.8 0 0 0 0 0.580392 0 0 0 0.29 0"/>
<feBlend mode="normal" in2="BackgroundImageFix" result="effect1_dropShadow_2542_45020"/>
<feBlend mode="normal" in="SourceGraphic" in2="effect1_dropShadow_2542_45020" result="shape"/>
</filter>
<linearGradient id="paint0_linear_2542_45020" x1="30.5" y1="16" x2="30.5" y2="45" gradientUnits="userSpaceOnUse">
<stop stop-color="#09CC94"/>
<stop offset="1" stop-color="#073D2D"/>
</linearGradient>
</defs>
</svg>
