<svg width="130" height="130" viewBox="0 0 130 130" fill="none" xmlns="http://www.w3.org/2000/svg">
<path d="M54 6.35085C60.8068 2.42093 69.1932 2.42093 76 6.35085L110.292 26.1491C117.098 30.0791 121.292 37.3419 121.292 45.2017V84.7983C121.292 92.6581 117.098 99.9209 110.292 103.851L76 123.649C69.1932 127.579 60.8068 127.579 54 123.649L19.7083 103.851C12.9015 99.9209 8.70835 92.6581 8.70835 84.7983V45.2017C8.70835 37.3419 12.9015 30.0791 19.7083 26.1491L54 6.35085Z" fill="url(#paint0_linear_2678_56448)"/>
<path d="M44.9227 68.5055C43.9216 67.0079 43.7215 65.1013 44.3892 63.4226C45.8816 60.327 48.3816 57.8521 51.4649 56.4182C53.6972 55.2894 56.1152 54.5893 58.5974 54.3529C57.5158 55.7062 56.4331 57.15 55.3491 58.6847C53.1431 62.0814 51.2547 65.6808 49.7088 69.4356L49.0434 70.9528C47.3765 70.8125 45.8616 69.9129 44.9227 68.5055ZM47.4578 76.3785C45.8652 78.6146 44.7221 81.1481 44.0942 83.8341C43.7027 85.5794 44.7767 87.317 46.4932 87.7151C46.9603 87.8234 47.4454 87.8233 47.9125 87.7147C50.5501 87.0751 53.0378 85.9136 55.2339 84.2964C57.3842 82.111 57.385 78.5668 55.2357 76.3804C53.0864 74.1939 49.6009 74.1931 47.4506 76.3785H47.4578ZM62.0069 81.9329L60.5039 82.6114V83.1594C60.5075 84.4722 61.0245 85.7296 61.941 86.6542C62.8127 87.5163 63.9805 87.999 65.1966 88C69.5171 87.9366 73.0202 83.9367 74.8587 80.2127C75.9851 77.9079 76.6759 75.4087 76.8953 72.8447C75.551 73.9631 74.1096 75.0814 72.571 76.1997C69.2317 78.4435 65.6924 80.363 61.9996 81.933L62.0069 81.9329ZM88 48.5712C87.7562 56.6847 82.0113 64.7311 70.4355 73.1745C67.2853 75.2509 63.962 77.0422 60.5039 78.5277V77.4783C60.4868 73.8827 57.6243 70.972 54.0881 70.9547H53.0561C54.5204 67.4383 56.2851 64.0592 58.3299 60.8562C66.6135 49.1136 74.514 43.2647 82.4806 43C86.451 43 88 44.644 88 48.5712ZM77.0015 58.8393C77.0015 56.2659 74.9498 54.1796 72.4188 54.1796C69.8878 54.1796 67.8361 56.2658 67.8361 58.8393C67.8361 61.4128 69.8878 63.4991 72.4188 63.4991C74.9498 63.4991 77.0015 61.4128 77.0015 58.8393Z" fill="#0F4EEF"/>
<defs>
<linearGradient id="paint0_linear_2678_56448" x1="70.1799" y1="-37.4576" x2="0.387012" y2="115.909" gradientUnits="userSpaceOnUse">
<stop stop-color="#0C0B24"/>
<stop offset="1" stop-color="#2D3154"/>
</linearGradient>
</defs>
</svg>
