<svg width="234" height="234" viewBox="0 0 234 234" fill="none" xmlns="http://www.w3.org/2000/svg">
<g filter="url(#filter0_d_2422_53610)">
<path d="M102.061 46.2693C108.837 42.386 117.163 42.386 123.939 46.2693L160.829 67.411C167.67 71.3316 171.89 78.6136 171.89 86.4985V128.501C171.89 136.386 167.67 143.668 160.829 147.589L123.939 168.731C117.163 172.614 108.837 172.614 102.061 168.731L65.1711 147.589C58.33 143.668 54.1103 136.386 54.1103 128.501V86.4985C54.1103 78.6136 58.33 71.3316 65.1711 67.411L102.061 46.2693Z" fill="url(#paint0_linear_2422_53610)"/>
<path d="M102.309 46.7031C108.931 42.9081 117.069 42.9081 123.691 46.7031L160.58 67.8448C167.266 71.6763 171.39 78.7928 171.39 86.4985V128.501C171.39 136.207 167.266 143.324 160.58 147.155L123.691 168.297C117.069 172.092 108.931 172.092 102.309 168.297L65.4197 147.155C58.7341 143.324 54.6103 136.207 54.6103 128.501V86.4985C54.6103 78.7928 58.7341 71.6763 65.4197 67.8448L102.309 46.7031Z" stroke="#616BC1"/>
</g>
<path d="M102 60.3509C108.807 56.4209 117.193 56.4209 124 60.3509L148.765 74.6491C155.572 78.5791 159.765 85.8419 159.765 93.7017V122.298C159.765 130.158 155.572 137.421 148.765 141.351L124 155.649C117.193 159.579 108.807 159.579 102 155.649L77.2346 141.351C70.4278 137.421 66.2346 130.158 66.2346 122.298V93.7017C66.2346 85.8419 70.4278 78.5791 77.2346 74.6491L102 60.3509Z" fill="url(#paint1_linear_2422_53610)"/>
<path d="M133.11 99.8195L127.849 104.259L129.454 110.894C129.57 111.374 129.542 111.878 129.372 112.343C129.202 112.807 128.898 113.21 128.499 113.502C128.096 113.799 127.613 113.969 127.113 113.992C126.612 114.015 126.116 113.89 125.687 113.631L119.752 110.06L113.817 113.633C113.388 113.892 112.892 114.018 112.391 113.995C111.891 113.972 111.408 113.801 111.005 113.504C110.605 113.213 110.301 112.809 110.131 112.345C109.96 111.881 109.932 111.376 110.048 110.896L111.654 104.261L106.394 99.8195C106.013 99.4976 105.737 99.0695 105.6 98.5899C105.463 98.1103 105.473 97.6009 105.627 97.1266C105.781 96.6524 106.073 96.2347 106.465 95.927C106.858 95.6192 107.333 95.4353 107.83 95.3986L114.757 94.8512L117.421 88.5406C117.616 88.0836 117.941 87.6939 118.355 87.42C118.769 87.146 119.255 87 119.752 87C120.249 87 120.735 87.146 121.149 87.42C121.563 87.6939 121.888 88.0836 122.083 88.5406L124.747 94.8512L131.674 95.3986C132.171 95.4353 132.646 95.6192 133.039 95.927C133.431 96.2347 133.723 96.6524 133.877 97.1266C134.031 97.6009 134.041 98.1103 133.904 98.5899C133.767 99.0695 133.491 99.4976 133.11 99.8195ZM105.522 104.977C105.383 104.838 105.217 104.727 105.035 104.652C104.853 104.576 104.658 104.537 104.461 104.537C104.264 104.537 104.068 104.576 103.886 104.652C103.704 104.727 103.539 104.838 103.399 104.977L92.4396 115.935C92.1581 116.217 92 116.599 92 116.997C92 117.395 92.1581 117.776 92.4396 118.058C92.7211 118.339 93.1028 118.497 93.5009 118.497C93.899 118.497 94.2807 118.339 94.5622 118.058L105.522 107.099C105.661 106.96 105.772 106.795 105.848 106.613C105.923 106.431 105.962 106.235 105.962 106.038C105.962 105.841 105.923 105.646 105.848 105.464C105.772 105.282 105.661 105.116 105.522 104.977ZM105.428 116.449L95.4397 126.434C95.1583 126.716 95.0001 127.098 95.0001 127.496C95.0001 127.894 95.1583 128.275 95.4397 128.557C95.7212 128.838 96.103 128.996 96.501 128.996C96.8991 128.996 97.2808 128.838 97.5623 128.557L107.549 118.57C107.818 118.286 107.966 117.908 107.961 117.517C107.956 117.126 107.799 116.753 107.522 116.476C107.246 116.199 106.872 116.042 106.481 116.037C106.09 116.032 105.712 116.18 105.428 116.449ZM119.116 116.262L108.937 126.438C108.655 126.72 108.497 127.101 108.497 127.499C108.497 127.897 108.655 128.279 108.937 128.56C109.218 128.842 109.6 129 109.998 129C110.396 129 110.778 128.842 111.059 128.56L121.237 118.384C121.519 118.103 121.677 117.721 121.677 117.323C121.677 116.926 121.519 116.544 121.238 116.263C120.957 115.981 120.575 115.823 120.177 115.823C119.779 115.823 119.398 115.98 119.116 116.262Z" fill="#09CC94"/>
<defs>
<filter id="filter0_d_2422_53610" x="0.109375" y="-10.6431" width="233.781" height="244.286" filterUnits="userSpaceOnUse" color-interpolation-filters="sRGB">
<feFlood flood-opacity="0" result="BackgroundImageFix"/>
<feColorMatrix in="SourceAlpha" type="matrix" values="0 0 0 0 0 0 0 0 0 0 0 0 0 0 0 0 0 0 127 0" result="hardAlpha"/>
<feOffset dx="4" dy="4"/>
<feGaussianBlur stdDeviation="29"/>
<feComposite in2="hardAlpha" operator="out"/>
<feColorMatrix type="matrix" values="0 0 0 0 0.0352941 0 0 0 0 0.8 0 0 0 0 0.580392 0 0 0 0.3 0"/>
<feBlend mode="normal" in2="BackgroundImageFix" result="effect1_dropShadow_2422_53610"/>
<feBlend mode="normal" in="SourceGraphic" in2="effect1_dropShadow_2422_53610" result="shape"/>
</filter>
<linearGradient id="paint0_linear_2422_53610" x1="117.561" y1="71.0583" x2="70.646" y2="173.691" gradientUnits="userSpaceOnUse">
<stop stop-color="#0C0B24"/>
<stop offset="1" stop-color="#2D3154"/>
</linearGradient>
<linearGradient id="paint1_linear_2422_53610" x1="117.303" y1="22.8814" x2="59.3215" y2="150.293" gradientUnits="userSpaceOnUse">
<stop stop-color="#0C0B24"/>
<stop offset="1" stop-color="#2D3154"/>
</linearGradient>
</defs>
</svg>
