<svg width="37" height="24" viewBox="0 0 37 24" fill="none" xmlns="http://www.w3.org/2000/svg">
<path d="M4.38838 15.8134C4.38838 17.188 4.69016 18.2434 5.08447 18.8818C5.60154 19.7181 6.37258 20.0723 7.15881 20.0723C8.17284 20.0723 9.10054 19.8206 10.8881 17.3482C12.3204 15.3665 14.008 12.5847 15.1434 10.8408L17.0664 7.88631C18.4022 5.83447 19.9482 3.55355 21.7211 2.0074C23.168 0.745442 24.7292 0.0444336 26.3002 0.0444336C28.938 0.0444336 31.4505 1.57301 33.3736 4.4399C35.478 7.57961 36.4996 11.5344 36.4996 15.6155C36.4996 18.0417 36.0215 19.8244 35.2077 21.2329C34.4215 22.595 32.8891 23.9558 30.3115 23.9558V20.0723C32.5186 20.0723 33.0694 18.0442 33.0694 15.7233C33.0694 12.4158 32.2982 8.74509 30.5995 6.12246C29.3938 4.26202 27.8315 3.12536 26.1126 3.12536C24.2536 3.12536 22.7575 4.52737 21.0762 7.02766C20.1824 8.35585 19.2647 9.97457 18.2345 11.801L17.1002 13.8104C14.8217 17.8502 14.2445 18.7703 13.1054 20.2889C11.1085 22.9481 9.40358 23.9558 7.15881 23.9558C4.4961 23.9558 2.81213 22.8027 1.76941 21.0651C0.918074 19.6492 0.5 17.7914 0.5 15.6745L4.38838 15.8134Z" fill="#0081FB"/>
<path d="M3.56641 4.71398C5.34923 1.9662 7.9218 0.0444336 10.8725 0.0444336C12.5815 0.0444336 14.2802 0.550257 16.0542 1.99868C17.9945 3.58224 20.0627 6.18996 22.6428 10.4878L23.5681 12.0301C25.8014 15.7508 27.0721 17.6648 27.8157 18.5676C28.7722 19.7268 29.442 20.0723 30.312 20.0723C32.5191 20.0723 33.0699 18.0442 33.0699 15.7233L36.5002 15.6155C36.5002 18.0417 36.022 19.8244 35.2083 21.2329C34.422 22.595 32.8896 23.9558 30.312 23.9558C28.7096 23.9558 27.29 23.6077 25.7201 22.1267C24.5133 20.99 23.1024 18.9707 22.0169 17.1554L18.7882 11.7622C17.1684 9.05559 15.6822 7.03764 14.8223 6.12359C13.8973 5.14091 12.7079 3.95405 10.8101 3.95405C9.27403 3.95405 7.96947 5.03207 6.87781 6.68074L3.56641 4.71398Z" fill="url(#paint0_linear_2044_44406)"/>
<path d="M10.8094 3.95405C9.27336 3.95405 7.9688 5.03207 6.87714 6.68074C5.33365 9.01059 4.38838 12.4808 4.38838 15.8134C4.38838 17.188 4.69016 18.2434 5.08447 18.8818L1.76941 21.0651C0.918074 19.6492 0.5 17.7914 0.5 15.6745C0.5 11.8247 1.55665 7.81248 3.56587 4.71398C5.3487 1.96619 7.92127 0.0444336 10.872 0.0444336L10.8094 3.95405Z" fill="url(#paint1_linear_2044_44406)"/>
<defs>
<linearGradient id="paint0_linear_2044_44406" x1="460.621" y1="1337.5" x2="2936.43" y2="1462.55" gradientUnits="userSpaceOnUse">
<stop stop-color="#0064E1"/>
<stop offset="0.4" stop-color="#0064E1"/>
<stop offset="0.83" stop-color="#0073EE"/>
<stop offset="1" stop-color="#0082FB"/>
</linearGradient>
<linearGradient id="paint1_linear_2044_44406" x1="563.854" y1="1740.18" x2="563.854" y2="826.305" gradientUnits="userSpaceOnUse">
<stop stop-color="#0082FB"/>
<stop offset="1" stop-color="#0064E0"/>
</linearGradient>
</defs>
</svg>
