<svg width="108" height="108" viewBox="0 0 108 108" fill="none" xmlns="http://www.w3.org/2000/svg">
<path d="M43 6.35085C49.8068 2.42093 58.1932 2.42093 65 6.35085L89.7654 20.6491C96.5722 24.5791 100.765 31.8419 100.765 39.7017V68.2983C100.765 76.1581 96.5722 83.4209 89.7654 87.3509L65 101.649C58.1932 105.579 49.8068 105.579 43 101.649L18.2346 87.3509C11.4278 83.4209 7.23463 76.1581 7.23463 68.2983V39.7017C7.23463 31.8419 11.4278 24.5791 18.2346 20.6491L43 6.35085Z" fill="url(#paint0_linear_2671_62573)"/>
<path d="M69.6013 42.2915L44.918 66.9681C45.4516 67.2282 46.0369 67.3649 46.6305 67.368H50.8579C51.2115 67.367 51.5508 67.5076 51.8001 67.7585L54.0911 70.0481C55.3334 71.299 57.0232 72.0031 58.7862 72.0045C59.5141 72.0038 60.237 71.8845 60.9265 71.6514C63.3036 70.872 65.0325 68.8114 65.3872 66.3351L69.8904 44.945C70.1054 44.0537 70.0032 43.1154 69.6013 42.2915Z" fill="#6940F2"/>
<path d="M65.0956 40.1032L43.7574 44.5985C40.1115 45.0994 37.5619 48.4611 38.0628 52.1071C38.2607 53.5469 38.9238 54.8827 39.9512 55.9106L42.2408 58.2003C42.4911 58.4505 42.6316 58.7899 42.6313 59.1438V63.3712C42.6344 63.9648 42.7711 64.5501 43.0312 65.0837L67.7104 40.4005C66.8994 40.0019 65.9753 39.8969 65.0956 40.1032Z" fill="#6940F2"/>
<defs>
<linearGradient id="paint0_linear_2671_62573" x1="58.3033" y1="-31.1186" x2="0.321518" y2="96.2933" gradientUnits="userSpaceOnUse">
<stop stop-color="#0C0B24"/>
<stop offset="1" stop-color="#2D3154"/>
</linearGradient>
</defs>
</svg>
