<svg width="34" height="34" viewBox="0 0 34 34" fill="none" xmlns="http://www.w3.org/2000/svg">
<path d="M18.6767 15.5857C19.4577 16.3668 19.4577 17.6331 18.6767 18.4142L18.4142 18.6767C17.6331 19.4577 16.3668 19.4577 15.5857 18.6767L15.3233 18.4142C14.5422 17.6331 14.5422 16.3668 15.3233 15.5858L15.5858 15.3233C16.3668 14.5422 17.6331 14.5422 18.4142 15.3233L18.6767 15.5857ZM15.5857 9.14149C16.3668 8.36043 17.6331 8.36042 18.4142 9.14147L18.8621 9.58943C19.6432 10.3705 20.9095 10.3705 21.6906 9.58941L22.7258 8.5542C23.5068 7.77315 23.5068 6.50684 22.7258 5.7258L18.4142 1.41421C17.6331 0.633164 16.3668 0.633165 15.5857 1.41421L11.2742 5.72578C10.4931 6.50683 10.4931 7.77316 11.2742 8.5542L12.3094 9.58943C13.0904 10.3705 14.3568 10.3705 15.1378 9.58941L15.5857 9.14149ZM9.14148 18.4142C8.36044 17.6331 8.36045 16.3668 9.1415 15.5858L9.58942 15.1378C10.3705 14.3568 10.3705 13.0905 9.58943 12.3094L8.55421 11.2742C7.77316 10.4931 6.50683 10.4931 5.72578 11.2742L1.41421 15.5857C0.633166 16.3668 0.633165 17.6331 1.41421 18.4142L5.7258 22.7258C6.50684 23.5068 7.77316 23.5068 8.55421 22.7258L9.58942 21.6906C10.3705 20.9095 10.3705 19.6432 9.58944 18.8621L9.14148 18.4142ZM24.8585 15.5858C25.6395 16.3668 25.6395 17.6331 24.8585 18.4142L24.4105 18.8621C23.6295 19.6432 23.6295 20.9095 24.4106 21.6906L25.4458 22.7258C26.2268 23.5068 27.4932 23.5068 28.2742 22.7258L32.5858 18.4142C33.3668 17.6331 33.3668 16.3668 32.5858 15.5857L28.2742 11.2742C27.4932 10.4931 26.2268 10.4931 25.4458 11.2742L24.4106 12.3094C23.6295 13.0905 23.6295 14.3568 24.4106 15.1378L24.8585 15.5858ZM18.4142 24.8585C17.6331 25.6395 16.3668 25.6395 15.5858 24.8585L15.1378 24.4106C14.3568 23.6295 13.0905 23.6295 12.3094 24.4106L11.2742 25.4458C10.4931 26.2268 10.4931 27.4932 11.2742 28.2742L15.5857 32.5858C16.3668 33.3668 17.6331 33.3668 18.4142 32.5858L22.7257 28.2742C23.5068 27.4932 23.5068 26.2268 22.7258 25.4458L21.6906 24.4106C20.9095 23.6295 19.6432 23.6295 18.8621 24.4105L18.4142 24.8585Z" fill="#5EC953"/>
</svg>
