<svg width="34" height="34" viewBox="0 0 34 34" fill="none" xmlns="http://www.w3.org/2000/svg">
<path d="M29.524 4.03191C29.3767 3.57575 29.0112 3.22441 28.5493 3.09691C28.2986 3.02891 22.3599 1.41675 17.7628 1.41675C13.0397 1.41675 7.21576 3.03033 6.96926 3.09975C6.49043 3.23291 6.11784 3.60691 5.98468 4.08575C5.96201 4.16791 5.77076 4.86775 5.52426 6.01241H5.00009C4.21809 6.01241 3.58343 6.64708 3.58343 7.42908C3.58343 8.21108 4.21384 8.8415 4.99301 8.84575C4.82159 9.90825 4.65868 11.1067 4.53401 12.3945H4.19401C3.41201 12.3945 2.77734 13.0292 2.77734 13.8112C2.77734 14.5932 3.41201 15.2278 4.19401 15.2278H4.33993C4.31726 15.8101 4.30451 16.4022 4.30451 17.0015C4.30451 17.6007 4.31726 18.1929 4.34134 18.7752H4.19543C3.41343 18.7752 2.77876 19.4098 2.77876 20.1918C2.77876 20.9738 3.41343 21.6085 4.19543 21.6085H4.53684C4.66151 22.8948 4.82443 24.0933 4.99584 25.1572C4.21668 25.1601 3.58484 25.7933 3.58484 26.5739C3.58484 27.3545 4.21951 27.9906 5.00151 27.9906H5.52709C5.77218 29.1338 5.96343 29.8337 5.98609 29.9158C6.11643 30.3876 6.48051 30.7602 6.95084 30.8976C7.18459 30.967 12.7266 32.5848 17.7643 32.5848C22.8019 32.5848 28.3439 30.9656 28.5777 30.8976C29.0282 30.7644 29.3838 30.4173 29.5268 29.9682C29.5963 29.7501 31.2226 24.5495 31.2226 17.0015C31.2226 9.4535 29.5948 4.25008 29.5254 4.03333L29.524 4.03191ZM27.0264 28.3816C25.3944 28.8066 21.3683 29.7501 17.7628 29.7501C14.1829 29.7501 10.1738 28.8165 8.52334 28.3887C8.10259 26.6093 7.13784 21.9938 7.13784 17.0001C7.13784 12.0063 8.09834 7.40641 8.52193 5.62141C10.2304 5.195 14.3883 4.25008 17.7628 4.25008C21.0608 4.25008 25.3137 5.20916 27.0307 5.63275C27.4557 7.26616 28.3878 11.4836 28.3878 17.0001C28.3878 22.5166 27.4486 26.7524 27.0264 28.3816Z" fill="#EEAA1B"/>
<path d="M17.764 18.2637C14.2861 18.2637 11.457 21.0928 11.457 24.5707C11.457 25.3527 12.0917 25.9873 12.8737 25.9873C13.6557 25.9873 14.2904 25.3527 14.2904 24.5707C14.2904 22.6553 15.8487 21.097 17.764 21.097C19.6794 21.097 21.2377 22.6553 21.2377 24.5707C21.2377 25.3527 21.8724 25.9873 22.6544 25.9873C23.4364 25.9873 24.071 25.3527 24.071 24.5707C24.071 21.0928 21.2419 18.2637 17.764 18.2637Z" fill="#EEAA1B"/>
<path d="M13.9423 14.0646C14.2427 14.96 14.9567 15.6726 15.8492 15.9715C16.4838 16.184 17.1227 16.2902 17.7617 16.2902C18.4006 16.2902 19.0395 16.184 19.6727 15.9715C20.5667 15.6726 21.2807 14.96 21.581 14.0632C22.0074 12.7939 22.0074 11.5076 21.581 10.2382C21.2807 9.34431 20.5681 8.63173 19.6727 8.32998C18.4034 7.90498 17.1171 7.90498 15.8477 8.32998C14.9552 8.63031 14.2412 9.3429 13.9409 10.2382C13.5145 11.5076 13.5145 12.7939 13.9409 14.0632L13.9423 14.0646Z" fill="#EEAA1B"/>
</svg>
