<svg width="34" height="34" viewBox="0 0 34 34" fill="none" xmlns="http://www.w3.org/2000/svg">
<g clip-path="url(#clip0_1700_46759)">
<path d="M6.98242 22.8735C7.53633 23.4274 7.53633 24.3228 6.98242 24.8767C6.70617 25.1529 6.3435 25.2918 5.98083 25.2918C5.61817 25.2918 5.2555 25.1529 4.97925 24.8767C-1.64933 18.2495 -1.64933 7.46443 4.97925 0.835848C5.53317 0.281931 6.4285 0.281931 6.98242 0.835848C7.53633 1.38976 7.53633 2.2851 6.98242 2.83901C1.46025 8.3626 1.46025 17.3499 6.98242 22.8735ZM29.0201 0.835848C28.4662 0.281931 27.5708 0.281931 27.0169 0.835848C26.463 1.38976 26.463 2.2851 27.0169 2.83901C32.5391 8.3626 32.5391 17.3499 27.0169 22.8735C26.463 23.4274 26.463 24.3228 27.0169 24.8767C27.2932 25.1529 27.6558 25.2918 28.0185 25.2918C28.3812 25.2918 28.7438 25.1529 29.0201 24.8767C35.6487 18.2481 35.6487 7.46301 29.0201 0.835848ZM16.9997 8.50001C14.6523 8.50001 12.7497 10.4026 12.7497 12.75C12.7497 14.6002 13.9326 16.1741 15.583 16.7578V32.5833C15.583 33.3653 16.2177 34 16.9997 34C17.7817 34 18.4163 33.3653 18.4163 32.5833V16.7578C20.0667 16.1741 21.2497 14.6002 21.2497 12.75C21.2497 10.4026 19.3471 8.50001 16.9997 8.50001ZM11.9903 5.73751C11.4364 5.1836 10.5411 5.1836 9.98717 5.73751C6.12108 9.6036 6.12108 15.895 9.98717 19.7611C10.2634 20.0373 10.6261 20.1762 10.9888 20.1762C11.3514 20.1762 11.7141 20.0373 11.9903 19.7611C12.5443 19.2072 12.5443 18.3118 11.9903 17.7579C9.22925 14.9954 9.22925 10.5018 11.9903 7.74068C12.5443 7.18676 12.5443 6.29143 11.9903 5.73751ZM24.0107 5.73751C23.4568 5.1836 22.5615 5.1836 22.0076 5.73751C21.4537 6.29143 21.4537 7.18676 22.0076 7.74068C24.7687 10.5032 24.7687 14.9968 22.0076 17.7579C21.4537 18.3118 21.4537 19.2072 22.0076 19.7611C22.2838 20.0373 22.6465 20.1762 23.0092 20.1762C23.3718 20.1762 23.7345 20.0373 24.0107 19.7611C27.8768 15.895 27.8768 9.6036 24.0107 5.73751Z" fill="#6940F2"/>
</g>
<defs>
<clipPath id="clip0_1700_46759">
<rect width="34" height="34" fill="white"/>
</clipPath>
</defs>
</svg>
