<svg width="25" height="23" viewBox="0 0 25 23" fill="none" xmlns="http://www.w3.org/2000/svg">
<path d="M18.2483 8.59749C18.6353 8.99149 18.6293 9.62449 18.2343 10.0115L13.8083 14.3565C13.0253 15.1245 12.0173 15.5075 11.0093 15.5075C10.0113 15.5075 9.01225 15.1315 8.23225 14.3785L6.33325 12.5105C5.93925 12.1235 5.93425 11.4905 6.32125 11.0965C6.70825 10.7015 7.34025 10.6965 7.73525 11.0845L9.62825 12.9455C10.4062 13.6955 11.6302 13.6915 12.4093 12.9275L16.8342 8.58349C17.2272 8.19549 17.8583 8.20349 18.2483 8.59749ZM23.3913 14.0195L19.8913 20.0195C18.9973 21.5495 17.3433 22.4995 15.5723 22.4995H8.50025C6.72925 22.4995 5.07425 21.5485 4.18125 20.0195L0.68025 14.0195C-0.22675 12.4655 -0.22675 10.5345 0.68025 8.98049L4.18025 2.98049C5.07325 1.45049 6.72725 0.500488 8.49925 0.500488H15.5712C17.3423 0.500488 18.9972 1.45149 19.8892 2.98049L23.3903 8.98049C24.2963 10.5345 24.2973 12.4655 23.3913 14.0195ZM21.6623 9.98849L18.1623 3.98849C17.6273 3.07049 16.6343 2.50049 15.5712 2.50049H8.49925C7.43625 2.50049 6.44325 3.07049 5.90825 3.98849L2.40825 9.98849C1.86425 10.9215 1.86425 12.0795 2.40825 13.0115L5.90825 19.0115C6.44425 19.9295 7.43625 20.4995 8.49925 20.4995H15.5712C16.6332 20.4995 17.6273 19.9295 18.1632 19.0115L21.6623 13.0115C22.2063 12.0785 22.2063 10.9205 21.6623 9.98849Z" fill="#09CC94"/>
</svg>
