<svg width="234" height="245" viewBox="0 0 234 245" fill="none" xmlns="http://www.w3.org/2000/svg">
<g filter="url(#filter0_d_2639_47092)">
<path d="M102.061 57.2693C108.837 53.386 117.163 53.386 123.939 57.2693L160.829 78.411C167.67 82.3316 171.89 89.6136 171.89 97.4985V139.501C171.89 147.386 167.67 154.668 160.829 158.589L123.939 179.731C117.163 183.614 108.837 183.614 102.061 179.731L65.1711 158.589C58.33 154.668 54.1103 147.386 54.1103 139.501V97.4985C54.1103 89.6136 58.33 82.3316 65.1711 78.411L102.061 57.2693Z" fill="url(#paint0_linear_2639_47092)"/>
<path d="M102.309 57.7031C108.931 53.9081 117.069 53.9081 123.691 57.7031L160.58 78.8448C167.266 82.6763 171.39 89.7928 171.39 97.4985V139.501C171.39 147.207 167.266 154.324 160.58 158.155L123.691 179.297C117.069 183.092 108.931 183.092 102.309 179.297L65.4197 158.155C58.7341 154.324 54.6103 147.207 54.6103 139.501V97.4985C54.6103 89.7928 58.7341 82.6763 65.4197 78.8448L102.309 57.7031Z" stroke="#616BC1"/>
</g>
<path d="M102 71.3509C108.807 67.4209 117.193 67.4209 124 71.3509L148.765 85.6491C155.572 89.5791 159.765 96.8419 159.765 104.702V133.298C159.765 141.158 155.572 148.421 148.765 152.351L124 166.649C117.193 170.579 108.807 170.579 102 166.649L77.2346 152.351C70.4278 148.421 66.2346 141.158 66.2346 133.298V104.702C66.2346 96.8419 70.4278 89.5791 77.2346 85.6491L102 71.3509Z" fill="url(#paint1_linear_2639_47092)"/>
<path d="M128.601 107.292L103.918 131.968C104.452 132.228 105.037 132.365 105.63 132.368H109.858C110.212 132.367 110.551 132.508 110.8 132.758L113.091 135.048C114.333 136.299 116.023 137.003 117.786 137.005C118.514 137.004 119.237 136.885 119.927 136.651C122.304 135.872 124.033 133.811 124.387 131.335L128.89 109.945C129.105 109.054 129.003 108.115 128.601 107.292Z" fill="#6940F2"/>
<path d="M124.096 105.103L102.757 109.599C99.1115 110.099 96.5619 113.461 97.0628 117.107C97.2607 118.547 97.9238 119.883 98.9512 120.911L101.241 123.2C101.491 123.45 101.632 123.79 101.631 124.144V128.371C101.634 128.965 101.771 129.55 102.031 130.084L126.71 105.4C125.899 105.002 124.975 104.897 124.096 105.103Z" fill="#6940F2"/>
<defs>
<filter id="filter0_d_2639_47092" x="0.109375" y="0.356934" width="233.781" height="244.286" filterUnits="userSpaceOnUse" color-interpolation-filters="sRGB">
<feFlood flood-opacity="0" result="BackgroundImageFix"/>
<feColorMatrix in="SourceAlpha" type="matrix" values="0 0 0 0 0 0 0 0 0 0 0 0 0 0 0 0 0 0 127 0" result="hardAlpha"/>
<feOffset dx="4" dy="4"/>
<feGaussianBlur stdDeviation="29"/>
<feComposite in2="hardAlpha" operator="out"/>
<feColorMatrix type="matrix" values="0 0 0 0 0.411765 0 0 0 0 0.25098 0 0 0 0 0.94902 0 0 0 0.3 0"/>
<feBlend mode="normal" in2="BackgroundImageFix" result="effect1_dropShadow_2639_47092"/>
<feBlend mode="normal" in="SourceGraphic" in2="effect1_dropShadow_2639_47092" result="shape"/>
</filter>
<linearGradient id="paint0_linear_2639_47092" x1="117.561" y1="82.0583" x2="70.646" y2="184.691" gradientUnits="userSpaceOnUse">
<stop stop-color="#0C0B24"/>
<stop offset="1" stop-color="#2D3154"/>
</linearGradient>
<linearGradient id="paint1_linear_2639_47092" x1="117.303" y1="33.8814" x2="59.3215" y2="161.293" gradientUnits="userSpaceOnUse">
<stop stop-color="#0C0B24"/>
<stop offset="1" stop-color="#2D3154"/>
</linearGradient>
</defs>
</svg>
