<svg width="260" height="242" viewBox="0 0 260 242" fill="none" xmlns="http://www.w3.org/2000/svg">
<g filter="url(#filter0_d_2678_56448)">
<path d="M115.05 26.2832C121.832 22.392 130.168 22.392 136.95 26.2832L185.964 54.4089C192.799 58.3312 197.014 65.6099 197.014 73.4905V129.509C197.014 137.39 192.799 144.669 185.964 148.591L136.95 176.717C130.168 180.608 121.832 180.608 115.05 176.717L66.0363 148.591C59.2011 144.669 54.9859 137.39 54.9859 129.509V73.4905C54.9859 65.6099 59.2011 58.3312 66.0363 54.4089L115.05 26.2832Z" fill="url(#paint0_linear_2678_56448)"/>
<path d="M115.299 26.7169C121.926 22.9141 130.074 22.9141 136.701 26.7169L185.715 54.8426C192.395 58.6757 196.514 65.789 196.514 73.4905V129.509C196.514 137.211 192.395 144.324 185.715 148.157L136.701 176.283C130.074 180.086 121.926 180.086 115.299 176.283L66.2852 148.157C59.6053 144.324 55.4859 137.211 55.4859 129.509V73.4905C55.4859 65.789 59.6053 58.6757 66.2852 54.8426L115.299 26.7169Z" stroke="#616BC1"/>
</g>
<path d="M115 43.3509C121.807 39.4209 130.193 39.4209 137 43.3509L171.292 63.1491C178.098 67.0791 182.292 74.3419 182.292 82.2017V121.798C182.292 129.658 178.098 136.921 171.292 140.851L137 160.649C130.193 164.579 121.807 164.579 115 160.649L80.7083 140.851C73.9015 136.921 69.7083 129.658 69.7083 121.798V82.2017C69.7083 74.3419 73.9015 67.0791 80.7083 63.1491L115 43.3509Z" fill="url(#paint1_linear_2678_56448)"/>
<path d="M105.923 105.505C104.922 104.008 104.721 102.101 105.389 100.423C106.882 97.327 109.382 94.8521 112.465 93.4182C114.697 92.2894 117.115 91.5893 119.597 91.3529C118.516 92.7062 117.433 94.15 116.349 95.6847C114.143 99.0814 112.255 102.681 110.709 106.436L110.043 107.953C108.377 107.813 106.862 106.913 105.923 105.505ZM108.458 113.379C106.865 115.615 105.722 118.148 105.094 120.834C104.703 122.579 105.777 124.317 107.493 124.715C107.96 124.823 108.445 124.823 108.913 124.715C111.55 124.075 114.038 122.914 116.234 121.296C118.384 119.111 118.385 115.567 116.236 113.38C114.086 111.194 110.601 111.193 108.451 113.379H108.458ZM123.007 118.933L121.504 119.611V120.159C121.507 121.472 122.025 122.73 122.941 123.654C123.813 124.516 124.981 124.999 126.197 125C130.517 124.937 134.02 120.937 135.859 117.213C136.985 114.908 137.676 112.409 137.895 109.845C136.551 110.963 135.11 112.081 133.571 113.2C130.232 115.443 126.692 117.363 123 118.933L123.007 118.933ZM149 85.5712C148.756 93.6847 143.011 101.731 131.435 110.175C128.285 112.251 124.962 114.042 121.504 115.528V114.478C121.487 110.883 118.624 107.972 115.088 107.955H114.056C115.52 104.438 117.285 101.059 119.33 97.8562C127.613 86.1136 135.514 80.2647 143.481 80C147.451 80 149 81.644 149 85.5712ZM138.002 95.8393C138.002 93.2659 135.95 91.1796 133.419 91.1796C130.888 91.1796 128.836 93.2658 128.836 95.8393C128.836 98.4128 130.888 100.499 133.419 100.499C135.95 100.499 138.002 98.4128 138.002 95.8393Z" fill="#0F4EEF"/>
<defs>
<filter id="filter0_d_2678_56448" x="0.984375" y="-30.6353" width="258.031" height="272.271" filterUnits="userSpaceOnUse" color-interpolation-filters="sRGB">
<feFlood flood-opacity="0" result="BackgroundImageFix"/>
<feColorMatrix in="SourceAlpha" type="matrix" values="0 0 0 0 0 0 0 0 0 0 0 0 0 0 0 0 0 0 127 0" result="hardAlpha"/>
<feOffset dx="4" dy="4"/>
<feGaussianBlur stdDeviation="29"/>
<feComposite in2="hardAlpha" operator="out"/>
<feColorMatrix type="matrix" values="0 0 0 0 0.0585938 0 0 0 0 0.304688 0 0 0 0 0.9375 0 0 0 0.45 0"/>
<feBlend mode="normal" in2="BackgroundImageFix" result="effect1_dropShadow_2678_56448"/>
<feBlend mode="normal" in="SourceGraphic" in2="effect1_dropShadow_2678_56448" result="shape"/>
</filter>
<linearGradient id="paint0_linear_2678_56448" x1="131.5" y1="57.5" x2="74.8076" y2="181.366" gradientUnits="userSpaceOnUse">
<stop stop-color="#0C0B24"/>
<stop offset="1" stop-color="#2D3154"/>
</linearGradient>
<linearGradient id="paint1_linear_2678_56448" x1="131.18" y1="-0.457627" x2="61.387" y2="152.909" gradientUnits="userSpaceOnUse">
<stop stop-color="#0C0B24"/>
<stop offset="1" stop-color="#2D3154"/>
</linearGradient>
</defs>
</svg>
