<svg width="35" height="34" viewBox="0 0 35 34" fill="none" xmlns="http://www.w3.org/2000/svg">
<path d="M30.25 17H26C24.4374 17 23.1667 18.2708 23.1667 19.8333C23.1667 21.3959 21.8959 22.6667 20.3333 22.6667H14.6667C13.1041 22.6667 11.8333 21.3959 11.8333 19.8333C11.8333 18.2708 10.5626 17 9 17H4.75C2.40683 17 0.5 18.9068 0.5 21.25V26.9167C0.5 30.8224 3.67758 34 7.58333 34H27.4167C31.3224 34 34.5 30.8224 34.5 26.9167V21.25C34.5 18.9068 32.5932 17 30.25 17ZM31.6667 26.9167C31.6667 29.2598 29.7598 31.1667 27.4167 31.1667H7.58333C5.24017 31.1667 3.33333 29.2598 3.33333 26.9167V21.25C3.33333 20.468 3.968 19.8333 4.75 19.8333L9 19.8305V19.8333C9 22.9585 11.5415 25.5 14.6667 25.5H20.3333C23.4585 25.5 26 22.9585 26 19.8333H30.25C31.032 19.8333 31.6667 20.468 31.6667 21.25V26.9167ZM10.8317 10.0881C10.2778 9.53417 10.2778 8.63883 10.8317 8.08492C11.3857 7.531 12.281 7.531 12.8349 8.08492L16.0833 11.3333V1.41667C16.0833 0.63325 16.7166 0 17.5 0C18.2834 0 18.9167 0.63325 18.9167 1.41667V11.3333L22.1651 8.08492C22.719 7.531 23.6143 7.531 24.1683 8.08492C24.7222 8.63883 24.7222 9.53417 24.1683 10.0881L19.5032 14.7532C18.9549 15.3014 18.2338 15.5777 17.5127 15.5805L17.5 15.5833L17.4872 15.5805C16.7662 15.5777 16.0451 15.3014 15.4968 14.7532L10.8317 10.0881Z" fill="#0ACD95"/>
</svg>
