<svg width="34" height="34" viewBox="0 0 34 34" fill="none" xmlns="http://www.w3.org/2000/svg">
<g clip-path="url(#clip0_1700_46783)">
<path d="M1.41667 23.3749C1.41667 21.4185 3.00192 19.8332 4.95834 19.8332C6.91476 19.8332 8.50001 21.4185 8.50001 23.3749C8.50001 25.3313 6.91476 26.9166 4.95834 26.9166C3.00192 26.9166 1.41667 25.3313 1.41667 23.3749ZM4.95834 28.3332C2.57834 28.3332 0.504341 29.9992 0.0297576 32.2957C-0.128909 33.0621 0.362674 33.8115 1.12909 33.9702C1.88984 34.1246 2.64492 33.6372 2.80359 32.8708C3.00901 31.8834 3.91426 31.1666 4.95834 31.1666C6.00242 31.1666 6.90767 31.8834 7.11309 32.8708C7.25192 33.5409 7.84126 33.9999 8.49859 33.9999C8.59351 33.9999 8.68984 33.99 8.78759 33.9702C9.55401 33.8115 10.047 33.0621 9.88692 32.2957C9.41234 29.9992 7.33834 28.3332 4.95834 28.3332ZM28.3333 19.8332H15.5833C14.0208 19.8332 12.75 18.5625 12.75 16.9999C12.75 15.4373 14.0208 14.1666 15.5833 14.1666H17C17.782 14.1666 18.4167 13.5319 18.4167 12.7499C18.4167 11.9679 17.782 11.3332 17 11.3332H15.5833C12.4582 11.3332 9.91667 13.8747 9.91667 16.9999C9.91667 20.1251 12.4582 22.6666 15.5833 22.6666H28.3333C29.8959 22.6666 31.1667 23.9373 31.1667 25.4999C31.1667 27.0625 29.8959 28.3332 28.3333 28.3332H14.1667C13.3847 28.3332 12.75 28.9679 12.75 29.7499C12.75 30.5319 13.3847 31.1666 14.1667 31.1666H28.3333C31.4585 31.1666 34 28.6251 34 25.4999C34 22.3747 31.4585 19.8332 28.3333 19.8332ZM21.9626 10.4677L20.7414 14.3847C20.5771 14.9103 20.7598 15.4841 21.2018 15.8142C21.4313 15.987 21.7062 16.0734 21.981 16.0734C22.2332 16.0734 22.4839 16.0012 22.7035 15.8538L26.2197 13.5007L29.7953 15.8297C30.2572 16.1301 30.8593 16.106 31.297 15.7702C31.7348 15.4331 31.9104 14.8565 31.7376 14.3337L30.4668 10.4634L33.5396 7.96015C33.9561 7.60882 34.1105 7.03365 33.9235 6.52082C33.7365 6.00799 33.2492 5.66799 32.7038 5.66799H28.8065L27.4267 1.79765C27.2383 1.28907 26.7523 0.951904 26.2098 0.951904C25.6672 0.951904 25.1813 1.28907 24.9928 1.79765L23.613 5.66799H19.7158C19.1718 5.66799 18.6844 6.00799 18.4974 6.5194C18.309 7.03082 18.4606 7.60457 18.8757 7.95732L21.9626 10.4677Z" fill="#C837AB"/>
</g>
<defs>
<clipPath id="clip0_1700_46783">
<rect width="34" height="34" fill="white"/>
</clipPath>
</defs>
</svg>
